      <svg
        width="24"
        height="24"
        viewBox="0 0 24 24"
        fill="currentColor"
        class="w-60 h-60 text-emerald-600 mb-2"
        xmlns="http://www.w3.org/2000/svg"
      >
        <path
          d="M14.9989 8.96165V11.11H16.7131V8.53198H14.9646C14.9862 8.67422 14.9977 8.81781 14.9989 8.96165Z"
        ></path>
        <path
          d="M5.57028 14.977C5.57162 15.4342 5.71966 15.8787 5.99243 16.245L7.73154 15.6645C6.916 15.4479 6.17092 15.0215 5.57028 14.4275V14.977Z"
        ></path>
        <path
          d="M18.9113 20.6181C18.9817 20.3867 19.1154 20.1799 19.2972 20.021C19.4791 19.862 19.7018 19.7575 19.9399 19.7192C20.1678 19.3139 20.55 19.0185 20.9989 18.9007V7.06364L11.9989 2.14709L2.9989 7.09802V18.9007C3.448 19.0184 3.83033 19.3138 4.05838 19.7192C4.2965 19.7575 4.51918 19.862 4.70105 20.021C4.88284 20.1799 5.01659 20.3867 5.08695 20.6181C5.35079 20.6984 5.58185 20.8617 5.74615 21.0839C5.91034 21.306 5.99899 21.5752 5.99892 21.8517C5.9975 21.9984 5.9708 22.1437 5.92009 22.2813H10.7132V17.9846H7.71323C6.91787 17.9837 6.15529 17.6666 5.59286 17.1028C5.03044 16.5389 4.71412 15.7744 4.71323 14.977V13.2583C4.71323 13.2501 4.71751 13.2437 4.71796 13.2356C4.72073 13.2063 4.72662 13.1775 4.73555 13.1496C4.741 13.1241 4.74867 13.0993 4.75867 13.0752C4.77109 13.0526 4.78537 13.031 4.80153 13.0108C4.81814 12.9862 4.83725 12.9633 4.8585 12.9425C4.86448 12.9369 4.86751 12.9296 4.8735 12.9244C4.88939 12.9149 4.90582 12.9064 4.92278 12.8991C4.94724 12.8829 4.9734 12.8693 5.00082 12.8587C5.02868 12.8498 5.05743 12.844 5.08653 12.8415C5.10457 12.8359 5.12305 12.8316 5.1418 12.8286H10.2847C10.8667 12.8302 11.4357 13.0012 11.9227 13.3208C12.4096 13.6405 12.7934 14.0951 13.0275 14.6294C13.2522 14.5755 13.4823 14.5479 13.7132 14.5473H18.8561C18.8741 14.5498 18.8921 14.5534 18.9097 14.558C18.9388 14.561 18.9675 14.5669 18.9954 14.5757C19.0226 14.5862 19.0486 14.5996 19.073 14.6156C19.09 14.6232 19.1066 14.6318 19.1227 14.6414C19.1287 14.6466 19.1317 14.6538 19.1377 14.6595C19.1589 14.6802 19.178 14.7031 19.1947 14.7278C19.2108 14.748 19.2251 14.7696 19.2375 14.7922C19.2475 14.8162 19.2552 14.8411 19.2606 14.8665C19.2696 14.8944 19.2755 14.9233 19.2782 14.9524C19.2782 14.9606 19.283 14.967 19.283 14.9752V16.6939C19.2821 17.4913 18.9656 18.2558 18.4032 18.8196C17.8408 19.3835 17.0783 19.7007 16.283 19.7016H13.763C13.6358 19.7017 13.5139 19.7525 13.4243 19.8428C13.3346 19.933 13.2843 20.0554 13.2847 20.1828V22.2813H18.0778C18.0271 22.1437 18.0004 21.9984 17.999 21.8517C17.999 21.5752 18.0876 21.3059 18.2519 21.0838C18.4162 20.8616 18.6475 20.6984 18.9114 20.6181L18.9113 20.6181ZM17.5703 11.5396C17.5703 11.6535 17.5252 11.7628 17.4448 11.8434C17.3644 11.9239 17.2554 11.9692 17.1418 11.9692H6.85604C6.74238 11.9692 6.63336 11.9239 6.553 11.8434C6.47264 11.7628 6.42746 11.6535 6.42746 11.5396V8.10223C6.42746 7.98827 6.47264 7.87898 6.553 7.79841C6.63336 7.71785 6.74238 7.67255 6.85604 7.67255H9.29238C9.6173 6.98348 10.1915 6.44423 10.8985 6.16406C11.6054 5.8839 12.3922 5.88387 13.0992 6.16406C13.8061 6.44425 14.3803 6.98348 14.7053 7.67255H17.1416C17.2553 7.67255 17.3643 7.71785 17.4446 7.79841C17.525 7.87897 17.5702 7.98827 17.5702 8.10223L17.5703 11.5396Z"
        ></path>
        <path
          d="M7.93601 13.688H6.05502C6.42636 14.0902 6.87591 14.4119 7.3761 14.6333C7.87619 14.8545 8.41619 14.9708 8.96289 14.9748L7.93601 13.688Z"
        ></path>
        <path
          d="M10.7474 17.1253C10.7846 16.8618 10.8566 16.6044 10.9617 16.36C10.5741 16.1402 10.1526 15.987 9.71458 15.9067L6.76395 16.895C7.05814 17.0449 7.38324 17.1238 7.71323 17.1253H10.7474Z"
        ></path>
        <path
          d="M11.9989 6.81323C11.4307 6.81395 10.8861 7.04051 10.4844 7.44323C10.0827 7.84595 9.85671 8.39198 9.856 8.96157V11.1099H14.1417V8.96157C14.141 8.392 13.915 7.84595 13.5133 7.44323C13.1116 7.04051 12.567 6.81394 11.9989 6.81323Z"
        ></path>
        <path
          d="M11.7927 1.2803C11.921 1.21047 12.0758 1.21047 12.2041 1.2803L23.445 7.42123L23.8633 6.56189L11.9989 0L0.148361 6.55548L0.61595 7.42861L11.7927 1.2803Z"
        ></path>
        <path
          d="M7.28458 11.11H8.99886V8.96165C9.00002 8.8178 9.01154 8.67422 9.03315 8.53198H7.28458V11.11Z"
        ></path>
        <path
          d="M11.5703 18.1045C12.1922 17.4886 12.9689 17.0529 13.8177 16.8434L14.9641 15.4066H13.7131C13.145 15.4073 12.6004 15.6339 12.1987 16.0366C11.797 16.4393 11.571 16.9854 11.5703 17.555V18.1045Z"
        ></path>
        <path
          d="M1.36343 21.422H1.28459C1.13147 21.422 0.990032 21.5039 0.913438 21.6368C0.836919 21.7697 0.836919 21.9335 0.913438 22.0665C0.990046 22.1994 1.13147 22.2813 1.28459 22.2813H4.71316C4.86629 22.2813 5.00772 22.1994 5.08432 22.0665C5.16084 21.9335 5.16084 21.7697 5.08432 21.6368C5.00771 21.5039 4.86628 21.422 4.71316 21.422C4.5995 21.422 4.49048 21.3767 4.41012 21.2961C4.32977 21.2156 4.28459 21.1063 4.28459 20.9923C4.28459 20.8783 4.23941 20.7691 4.15905 20.6885C4.07869 20.6079 3.96968 20.5626 3.85601 20.5626C3.75664 20.5718 3.65691 20.5497 3.57066 20.4993C3.4845 20.4491 3.41593 20.3731 3.37477 20.2821C3.27379 19.9941 3.02727 19.7822 2.72807 19.7259C2.42887 19.6696 2.12245 19.7776 1.92432 20.0093C1.72611 20.2408 1.6662 20.5609 1.76718 20.8488C1.81361 20.9803 1.79352 21.1262 1.71325 21.2402C1.63307 21.3541 1.50264 21.4219 1.36343 21.422Z"
        ></path>
        <path
          d="M18.4274 16.6956V16.1461C17.8268 16.7401 17.0817 17.1666 16.2662 17.3831L18.0053 17.9644C18.2782 17.5979 18.4263 17.1531 18.4274 16.6956Z"
        ></path>
        <path
          d="M12.2334 14.9422C12.0619 14.5684 11.7874 14.2516 11.442 14.0293C11.0967 13.8071 10.695 13.6885 10.2846 13.688H9.03365L10.1792 15.1235C10.6133 15.2315 11.0303 15.3991 11.4187 15.6215C11.648 15.3486 11.9238 15.1186 12.2334 14.9422L12.2334 14.9422Z"
        ></path>
        <path
          d="M19.2846 22.2813H22.7132C22.8663 22.2813 23.0077 22.1994 23.0843 22.0665C23.1608 21.9336 23.1608 21.7698 23.0843 21.6368C23.0077 21.5039 22.8663 21.422 22.7132 21.422H22.6343C22.495 21.422 22.3645 21.3541 22.2842 21.24C22.204 21.126 22.184 20.9799 22.2306 20.8484C22.2649 20.757 22.2832 20.6603 22.2846 20.5626C22.2858 20.2897 22.1572 20.0326 21.9383 19.8704C21.7192 19.7082 21.4363 19.6604 21.1765 19.7418C20.9167 19.8231 20.711 20.0238 20.623 20.2821C20.5906 20.3712 20.5302 20.4473 20.4509 20.4991C20.3716 20.5508 20.2777 20.5754 20.1833 20.5691L20.1327 20.5626C20.0207 20.565 19.914 20.6113 19.8355 20.6916C19.7571 20.7719 19.7132 20.8799 19.7132 20.9923C19.7132 21.1063 19.668 21.2156 19.5876 21.2961C19.5073 21.3767 19.3983 21.422 19.2846 21.422C19.1315 21.422 18.99 21.5039 18.9134 21.6368C18.8369 21.7697 18.8369 21.9335 18.9134 22.0665C18.99 22.1994 19.1315 22.2813 19.2846 22.2813Z"
        ></path>
        <path
          d="M15.0347 16.6956C15.5816 16.6913 16.1217 16.5747 16.6218 16.3531C17.122 16.1313 17.5715 15.8093 17.9426 15.4066H16.0616L15.0347 16.6956Z"
        ></path>
        <path d="M22.7143 23.1406H0V24H24V23.1406H22.7143Z"></path>
        <path
          d="M12.4274 20.183C12.4278 19.828 12.5686 19.4876 12.819 19.2367C13.0693 18.9857 13.4088 18.8445 13.7629 18.8441H16.2845C16.6148 18.842 16.94 18.7624 17.2342 18.6116L14.2818 17.6234C13.3233 17.7932 12.4594 18.3074 11.8518 19.0697L11.5702 19.4246V22.2815H12.4274L12.4274 20.183Z"
        ></path>
      </svg>
